<svg width="18" height="18" viewBox="0 0 18 18" fill="none" xmlns="http://www.w3.org/2000/svg">
<path d="M3.5 10.5H14.5V9.5H3.5V10.5ZM3.5 7.5H14.5V6.5H3.5V7.5ZM3.5 4.5H14.5V3.5H3.5V4.5ZM18 17.077L14.923 14H1.616C1.15534 14 0.770669 13.846 0.462002 13.538C0.153335 13.23 -0.000664511 12.8457 2.15517e-06 12.385V1.615C2.15517e-06 1.155 0.154336 0.770669 0.463002 0.462002C0.771669 0.153335 1.15567 -0.000664511 1.615 2.15517e-06H16.385C16.845 2.15517e-06 17.229 0.154002 17.537 0.462002C17.845 0.770002 17.9993 1.15434 18 1.615V17.077ZM1.616 13H15.35L17 14.644V1.616C17 1.462 16.936 1.32067 16.808 1.192C16.68 1.06334 16.539 0.999335 16.385 1H1.615C1.46167 1 1.32067 1.064 1.192 1.192C1.06334 1.32 0.999335 1.461 1 1.615V12.385C1 12.5383 1.064 12.6793 1.192 12.808C1.32 12.9367 1.461 13.0007 1.615 13" fill="#111111"/>
</svg>
