<svg width="19" height="24" viewBox="0 0 19 24" fill="none" xmlns="http://www.w3.org/2000/svg">
<path d="M10.436 0.64959C10.2432 0.438949 10.0075 0.27204 9.74479 0.160091C9.48208 0.0481424 9.19845 -0.00625057 8.91297 0.000570723C8.62748 0.00739201 8.34677 0.0752695 8.08971 0.199638C7.83265 0.324006 7.6052 0.50198 7.42267 0.72159L0 9.64426V21.5376C0 22.068 0.210713 22.5767 0.585786 22.9518C0.960859 23.3269 1.46957 23.5376 2 23.5376H4.38667C4.9171 23.5376 5.42581 23.3269 5.80088 22.9518C6.17595 22.5767 6.38667 22.068 6.38667 21.5376V17.5229C6.38667 16.9925 6.59738 16.4838 6.97245 16.1087C7.34753 15.7336 7.85623 15.5229 8.38667 15.5229H10.28C10.8104 15.5229 11.3191 15.7336 11.6942 16.1087C12.0693 16.4838 12.28 16.9925 12.28 17.5229V21.5376C12.28 22.068 12.4907 22.5767 12.8658 22.9518C13.2409 23.3269 13.7496 23.5376 14.28 23.5376H16.6667C17.1971 23.5376 17.7058 23.3269 18.0809 22.9518C18.456 22.5767 18.6667 22.068 18.6667 21.5376V9.64426L10.436 0.64959Z" fill="#111111"/>
</svg>
