<svg width="24" height="24" viewBox="0 0 24 24" fill="none" xmlns="http://www.w3.org/2000/svg">
<path d="M7 12C7 11.876 7.02386 11.7617 7.07157 11.6573C7.11929 11.5463 7.19087 11.4451 7.2863 11.3537L15.3947 3.75461C15.5787 3.58487 15.8003 3.5 16.0593 3.5C16.2365 3.5 16.3933 3.53917 16.5297 3.61751C16.6728 3.69585 16.7853 3.80357 16.8671 3.94067C16.9557 4.07124 17 4.22139 17 4.39113C17 4.63268 16.908 4.84485 16.7239 5.02765L9.28016 12L16.7239 18.9724C16.908 19.1551 17 19.3673 17 19.6089C17 19.7786 16.9557 19.9288 16.8671 20.0593C16.7853 20.1964 16.6728 20.3041 16.5297 20.3825C16.3933 20.4608 16.2365 20.5 16.0593 20.5C15.8003 20.5 15.5787 20.4119 15.3947 20.2356L7.2863 12.6463C7.19087 12.5549 7.11929 12.457 7.07157 12.3525C7.02386 12.2416 7 12.124 7 12Z" fill="#464C53"/>
</svg>
